<?xml version="1.0" standalone="no"?>
<!DOCTYPE svg PUBLIC "-//W3C//DTD SVG 1.0//EN" "http://www.w3.org/TR/2001/REC-SVG-20010904/DTD/svg10.dtd">
<svg xmlns="http://www.w3.org/2000/svg" width="16" height="16" fill="currentColor" class=" bi bi-palette-fill" viewBox="0 0 16 16" xmlns:inkscape ="http://www.inkscape.org/namespaces/inkscape" >
<desc>CopyRight:SVG Design Editor;
configurationStart;Unit=smInches;Dpi=96;Division=4;Grid=True;Zoom=1;CanvasW=16;CanvasH=16;configurationEnd;</desc>
<g isVisble = "True" inkscape:label = "shop Default Layer" inkscape:groupmode = "layer" ><path style="fill:#60425E;stroke:none; stroke-width:1" d="m12.43,10.07c1.7,0.52 3.57,1.08 3.57,-2.07a8 8,0 1,0 -8,8c2,0 1.83,-1.5 1.65,-3.08c-0.12,-1.1 -0.25,-2.24 0.35,-2.92c0.47,-0.53 1.42,-0.24 2.43,0.07m-4.43,-5.07a1.5 1.5,0 1,1 0,-3a1.5 1.5,0 0,1 0,3m4.5,3a1.5 1.5,0 1,1 0,-3a1.5 1.5,0 0,1 0,3m-7.5,-1.5a1.5 1.5,0 1,1 -3,0a1.5 1.5,0 0,1 3,0m0.5,6.5a1.5 1.5,0 1,1 0,-3a1.5 1.5,0 0,1 0,3" vector-effect="non-scaling-stroke" pen = "1,1" />
</g>
</svg>
